<?xml version="1.0" encoding="UTF-8"?>
<svg width="24px" height="24px" viewBox="0 0 24 24" version="1.1" xmlns="http://www.w3.org/2000/svg" xmlns:xlink="http://www.w3.org/1999/xlink">
    <title>add (1)</title>
    <g id="Page-1" stroke="none" stroke-width="1" fill="none" fill-rule="evenodd">
        <g id="Coaching-blue" transform="translate(-35.000000, -97.000000)" fill="#FFFFFF" fill-rule="nonzero">
            <g id="add-(1)" transform="translate(35.000000, 97.000000)">
                <path d="M12,0 C5.38279688,0 0,5.38279688 0,12 C0,18.6172031 5.38279688,24 12,24 C18.6172031,24 24,18.6162656 24,12 C24,5.38373438 18.6172031,0 12,0 Z M12,22.1409844 C6.40898438,22.1409844 1.85901562,17.5919531 1.85901562,12 C1.85901562,6.40804687 6.40898438,1.85901562 12,1.85901562 C17.5910156,1.85901562 22.1409844,6.40804688 22.1409844,12 C22.1409844,17.5919531 17.5919531,22.1409844 12,22.1409844 Z" id="Shape"></path>
                <path d="M17.0833179,11.5833179 L13.4166821,11.5833179 L13.4166821,7.91668208 C13.4166821,7.41068097 13.0069257,7 12.5,7 C11.9930743,7 11.5833179,7.41068097 11.5833179,7.91668208 L11.5833179,11.5833179 L7.91668208,11.5833179 C7.40975643,11.5833179 7,11.9939989 7,12.5 C7,13.0060011 7.40975643,13.4166821 7.91668208,13.4166821 L11.5833179,13.4166821 L11.5833179,17.0833179 C11.5833179,17.589319 11.9930743,18 12.5,18 C13.0069257,18 13.4166821,17.589319 13.4166821,17.0833179 L13.4166821,13.4166821 L17.0833179,13.4166821 C17.5902436,13.4166821 18,13.0060011 18,12.5 C18,11.9939989 17.5902436,11.5833179 17.0833179,11.5833179 Z" id="Path"></path>
            </g>
        </g>
    </g>
</svg>