<?xml version="1.0" encoding="UTF-8"?>
<svg width="52px" height="52px" viewBox="0 0 52 52" version="1.1" xmlns="http://www.w3.org/2000/svg" xmlns:xlink="http://www.w3.org/1999/xlink">
    <title>Group 2</title>
    <defs>
        <path d="M26,0 C40.3594,0 52,11.641 52,26 C52,40.359 40.3594,52 26,52 C11.6406,52 0,40.359 0,26 C0,11.641 11.6406,0 26,0 Z" id="path-1"></path>
        <path d="M14.0204,0 C14.372,0 14.7017,0.136 14.9491,0.384 L14.9491,0.384 L23.6164,9.066 C23.8646,9.314 24.0008,9.646 24,10 C24.001,10.353 23.8646,10.685 23.6166,10.933 L23.6166,10.933 L14.9493,19.615 C14.7019,19.863 14.3722,20 14.0206,20 C13.6686,20 13.339,19.865 13.0916,19.617 L13.0916,19.617 L12.3047,18.831 C12.0575,18.584 11.9213,18.257 11.9213,17.905 C11.9213,17.553 12.0575,17.231 12.3047,16.984 L12.3047,16.984 L17.4182,11.879 L1.2966,11.879 C0.5723,11.879 0,11.254 0,10.528 L0,10.528 L0,9.414 C0,8.688 0.5723,8.12 1.2966,8.12 L1.2966,8.12 L17.3608,8.12 L12.3045,3.044 C12.0573,2.796 11.9211,2.455 11.9211,2.103 C11.9211,1.75 12.0573,1.42 12.3045,1.172 L12.3045,1.172 L13.0914,0.384 C13.3388,0.136 13.6684,0 14.0204,0 Z" id="path-3"></path>
    </defs>
    <g id="Page-1" stroke="none" stroke-width="1" fill="none" fill-rule="evenodd">
        <g id="Coaching-blue" transform="translate(-692.000000, -676.000000)">
            <g id="Group-2" transform="translate(692.000000, 676.000000)">
                <g id="Group-319">
                    <mask id="mask-2" fill="white">
                        <use xlink:href="#path-1"></use>
                    </mask>
                    <g id="Clip-318"></g>
                    <path d="M26,52 C40.3594,52 52,40.3594 52,26 C52,11.640596 40.3594,0 26,0 C11.640596,0 0,11.640596 0,26 C0,40.3594 11.640596,52 26,52 Z" id="Stroke-317" stroke="#FFFFFF" stroke-width="2" mask="url(#mask-2)"></path>
                </g>
                <g id="Group-322" transform="translate(14.000000, 16.000000)">
                    <mask id="mask-4" fill="white">
                        <use xlink:href="#path-3"></use>
                    </mask>
                    <g id="Clip-321"></g>
                    <polygon id="Fill-320" fill="#FFFFFF" mask="url(#mask-4)" points="-10 -10 34 -10 34 30 -10 30"></polygon>
                </g>
            </g>
        </g>
    </g>
</svg>