<?xml version="1.0" encoding="UTF-8"?>
<svg width="40px" height="34px" viewBox="0 0 40 34" version="1.1" xmlns="http://www.w3.org/2000/svg" xmlns:xlink="http://www.w3.org/1999/xlink">
    <title>Group 212</title>
    <defs>
        <path d="M36.3177,0 C38.2444742,0 39.890572,1.46191467 39.9947669,3.38517337 L40,3.579 L40,16.998 C40,18.9509032 38.4160562,20.4758148 36.5093951,20.572164 L36.3177,20.577 L30.415,20.577 L34.9072,32.465 C35.1306,33.056 34.8187,33.71 34.2114,33.927 C33.5470875,34.1641875 32.9661832,33.7843828 32.7462842,33.3404729 L32.7072,33.251 L27.9184,20.577 L27.0969,20.577 L22.3566,33.247 C22.1683,33.75 21.55,34.174 20.8548,33.928 C20.2871467,33.7273333 19.9757742,33.14512 20.1166246,32.5878785 L20.1538,32.469 L24.603,20.577 L20.4013,20.577 C19.5544731,22.1048846 17.7211447,22.5473402 16.3049511,21.9594846 L16.1371,21.884 L12.3853,20.061 L12.3853,32.858 C12.3853,33.4450667 11.9283151,33.9284711 11.3411049,33.9903159 L11.2134,33.997 L3.6823,33.997 C3.07815333,33.997 2.580892,33.5527333 2.51727559,32.9820975 L2.5104,32.858 L2.5104,26.491 C1.11334167,26.0348333 0.0884201389,24.7842483 0.00543546007,23.2937305 L0,23.098 L0,19.438 C0,16.601 1.64,14.311 3.7869,13.137 C2.6212,12.145 1.8829,10.689 1.8829,9.069 C1.8829,6.086 4.3793,3.66 7.4481,3.66 C10.5167,3.66 13.013,6.086 13.013,9.069 C13.013,10.518 12.4225,11.835 11.4645,12.807 L11.6331375,12.88025 L11.6331375,12.88025 L11.7996,12.958 L15.0626,14.535 L15.0626,3.579 C15.0626,1.66964516 16.6096447,0.103994797 18.5495434,0.00497193783 L18.7448,0 L36.3177,0 Z M8.4833,14.478 L7.4478,14.478 C4.74826053,14.478 2.46681593,16.5419287 2.34860938,19.2195771 L2.3438,19.438 L2.3438,23.098 C2.3438,23.816 2.944,24.399 3.6823,24.399 C4.28607333,24.399 4.78357111,24.8432667 4.84722071,25.4139025 L4.8541,25.538 L4.8541,31.719 L10.0415,31.719 L10.0415,18.218 C10.0415,17.372 10.9595,16.822 11.7371,17.2 C11.7371,17.2 14.957,18.763 17.1854,19.846 C17.4103,19.956 17.6736,19.965 17.9077,19.873 C18.129,19.784 18.3096,19.602 18.3896,19.385 C18.3923,19.376 18.3954,19.368 18.3984,19.359 C18.5153,19.036 18.3646,18.676 18.0475,18.523 C17.4659,18.241 16.2157,17.637 14.9119,17.007 L14.1992,16.662 C12.4226,15.803 10.7544,14.997 10.7544,14.997 C10.0534,14.657 9.2688,14.478 8.4833,14.478 Z M36.3177,2.278 L18.7448,2.278 C18.0527375,2.278 17.4818762,2.79128125 17.4132219,3.4462312 L17.4063,3.579 L17.4063,15.668 C17.86702,15.8904 18.3031,16.10192 18.6958008,16.291808 L18.9819,16.43 L21.4624,11.609 C21.752,11.046 22.4561,10.819 23.0347,11.1 C23.5750067,11.3622667 23.8152156,11.9755911 23.6096304,12.5139419 L23.5587,12.628 L20.6503,18.281 L20.6561,18.299 L36.3177,18.299 C36.6708,18.299 37.016,18.161 37.2647,17.919 C37.4813,17.7081429 37.6142184,17.4377755 37.6477746,17.1456822 L37.6562,16.998 L37.6562,3.579 C37.6562,3.231 37.5174,2.904 37.265,2.659 C37.016,2.417 36.6708,2.278 36.3177,2.278 Z M33.8074,13.42 C34.4547,13.42 34.9792,13.929 34.9792,14.559 C34.9792,15.1451333 34.5219538,15.6293467 33.935034,15.6913034 L33.8074,15.698 L27.5311,15.698 C26.8842,15.698 26.3593,15.187 26.3593,14.559 C26.3593,13.971 26.8165462,13.4884044 27.403466,13.4266717 L27.5311,13.42 L33.8074,13.42 Z M7.4478,5.938 C5.6717,5.938 4.2267,7.342 4.2267,9.069 C4.2267,10.795 5.6717,12.199 7.4478,12.199 C9.2242,12.199 10.6693,10.795 10.6693,9.069 C10.6693,7.342 9.2242,5.938 7.4478,5.938 Z M33.8074,9.15 C34.4547,9.15 34.9792,9.66 34.9792,10.289 C34.9792,10.8760667 34.5219538,11.3594711 33.935034,11.4213159 L33.8074,11.428 L27.5311,11.428 C26.8842,11.428 26.3593,10.918 26.3593,10.289 C26.3593,9.70193333 26.8165462,9.21852889 27.403466,9.15668415 L27.5311,9.15 L33.8074,9.15 Z M33.8074,4.88 C34.4547,4.88 34.9792,5.39 34.9792,6.019 C34.9792,6.60606667 34.5219538,7.08947111 33.935034,7.15131585 L33.8074,7.158 L21.2552,7.158 C20.6079,7.158 20.0833,6.648 20.0833,6.019 C20.0833,5.43193333 20.5402849,4.94852889 21.1274951,4.88668415 L21.2552,4.88 L33.8074,4.88 Z" id="path-1"></path>
    </defs>
    <g id="Page-1" stroke="none" stroke-width="1" fill="none" fill-rule="evenodd">
        <g id="Sales--blue" transform="translate(-332.000000, -502.000000)">
            <g id="Group-212" transform="translate(332.000000, 502.000000)">
                <mask id="mask-2" fill="white">
                    <use xlink:href="#path-1"></use>
                </mask>
                <g id="Clip-211"></g>
                <polygon id="Fill-210" fill="#FFFFFF" mask="url(#mask-2)" points="-10 -10 50 -10 50 44 -10 44"></polygon>
            </g>
        </g>
    </g>
</svg>