<?xml version="1.0" encoding="UTF-8"?>
<svg width="44px" height="44px" viewBox="0 0 44 44" version="1.1" xmlns="http://www.w3.org/2000/svg" xmlns:xlink="http://www.w3.org/1999/xlink">
    <title>Group 325</title>
    <defs>
        <path d="M28,38 L28,40.5 C28,42.42 26.42,44 24.5,44 L19.5,44 C17.82,44 16,42.72 16,39.92 L16,38 L28,38 Z M34.6641,32.457 L37.5429,35.336 C38.1524,35.945 38.1524,36.933 37.5429,37.542 C37.2371,37.848 36.8378,38 36.4384,38 C36.039,38 35.6396,37.848 35.3359,37.542 L32.4571,34.664 C31.8476,34.054 31.8476,33.066 32.4571,32.457 C33.0666,31.848 34.0546,31.848 34.6641,32.457 Z M11.5429,32.457 C12.1524,33.066 12.1524,34.054 11.5429,34.664 L8.6641,37.542 C8.3583,37.848 7.9589,38 7.5595,38 C7.1602,38 6.7608,37.848 6.4571,37.542 C5.8476,36.933 5.8476,35.945 6.4571,35.336 L9.3359,32.457 C9.9454,31.848 10.9334,31.848 11.5429,32.457 Z M31.1904,12.793 C34.2544,15.194 36,18.743 36,22.542 C36,26.413 34.1802,29.997 31.0419,32.398 C29.8406813,33.3055 29.0311031,34.4643672 28.7204471,35.7279341 L28.665,35.982 L17.4303,35.982 C17.4055,35.982 17.3724778,35.982 17.3422259,35.9873333 L17.3003,36 C17.252975,35.7285 17.1889438,35.473875 17.1093453,35.2297969 L17.025,34.991 C16.9922222,34.9922222 16.9566667,34.9966667 16.93,35.01 L16.93,34.99 L17.0238,34.987 C16.6499,33.999 16.0123,33.156 15.1833,32.559 C11.1351,29.602 9.241,24.764 10.2809,19.89 C11.3023,15.141 15.2948,11.27 20.2157,10.284 C24.1339,9.478 28.145,10.41 31.1904,12.793 Z M42.6983,22 C43.4168,22 44,22.448 44,23 C44,23.552 43.4168,24 42.6983,24 L39.3017,24 C38.5832,24 38,23.552 38,23 C38,22.448 38.5832,22 39.3017,22 L42.6983,22 Z M4.6983,22 C5.4168,22 6,22.448 6,23 C6,23.552 5.4168,24 4.6983,24 L1.3017,24 C0.5832,24 0,23.552 0,23 C0,22.448 0.5832,22 1.3017,22 L4.6983,22 Z M23.4654,14.478 C22.7041,14.478 22.0727,15.087 22.0727,15.822 C22.0727,16.556 22.7041,17.166 23.4654,17.166 C26.288,17.166 28.5721,19.37 28.5721,22.094 C28.5721,22.829 29.2035,23.438 29.9648,23.438 C30.7262,23.438 31.3576,22.829 31.3576,22.094 C31.3576,17.9 27.8108,14.478 23.4654,14.478 Z M37.5429,6.457 C38.1524,7.066 38.1524,8.054 37.5429,8.664 L34.6641,11.542 C34.3583,11.846 33.9589,12 33.5595,12 C33.1602,12 32.7608,11.848 32.4571,11.542 C31.8476,10.933 31.8476,9.945 32.4571,9.336 L35.3359,6.457 C35.9454,5.848 36.9334,5.848 37.5429,6.457 Z M8.6641,6.457 L11.5429,9.336 C12.1524,9.945 12.1524,10.933 11.5429,11.542 C11.235,11.846 10.8378,12 10.4384,12 C10.039,12 9.6396,11.848 9.3359,11.542 L6.4571,8.664 C5.8476,8.054 5.8476,7.066 6.4571,6.457 C7.0666,5.848 8.0546,5.848 8.6641,6.457 Z M23,0 C23.552,0 24,0.583 24,1.302 L24,4.698 C24,5.417 23.552,6 23,6 C22.448,6 22,5.417 22,4.698 L22,1.302 C22,0.583 22.448,0 23,0 Z" id="path-1"></path>
    </defs>
    <g id="Page-1" stroke="none" stroke-width="1" fill="none" fill-rule="evenodd">
        <g id="Coaching-blue" transform="translate(-298.000000, -508.000000)">
            <g id="Group-325" transform="translate(298.000000, 508.000000)">
                <mask id="mask-2" fill="white">
                    <use xlink:href="#path-1"></use>
                </mask>
                <g id="Clip-324"></g>
                <polygon id="Fill-323" fill="#FFFFFF" mask="url(#mask-2)" points="-10 -10 54 -10 54 54 -10 54"></polygon>
            </g>
        </g>
    </g>
</svg>