<?xml version="1.0" encoding="UTF-8"?>
<svg width="40px" height="40px" viewBox="0 0 40 40" version="1.1" xmlns="http://www.w3.org/2000/svg" xmlns:xlink="http://www.w3.org/1999/xlink">
    <title>Group 675</title>
    <defs>
        <path d="M5.52,1.025 C6.8873,-0.342 9.1181,-0.342 10.4891,1.029 L10.4891,1.029 L15.4606,5.984 C16.8459,7.369 16.8269,9.593 15.4619,10.958 C15.40518,11.0147333 15.3475947,11.0723289 15.2894036,11.1305274 L13.6215713,12.7981126 C13.4441956,12.97544 13.2986667,13.1209333 13.2016,13.218 C12.1603,14.259 12.1605,15.944 13.2016,16.985 L13.2016,16.985 L22.9989,26.791 C24.0371,27.829 25.7272,27.829 26.7658,26.79 L26.7658,26.79 L29.0262,24.53 C30.3971,23.159 32.628,23.159 33.999,24.53 L33.999,24.53 L38.9718,29.503 C40.3427,30.874 40.3427,33.104 38.9718,34.475 L38.9718,34.475 L37.1634,36.283 C32.2075,41.239 24.1868,41.239 19.2313,36.283 L19.2313,36.283 L3.7078,20.752 C-1.236,15.809 -1.236,7.765 3.708,2.821 C4.1668,2.366 4.4968,2.039 5.52,1.025 Z M4.719,5.188 C1.3303,9.264 1.5406,15.27 5.3656,19.095 L5.3656,19.095 L20.8892,34.626 C24.7405,38.477 30.7331,38.655 34.7963,35.273 L34.7963,35.273 L28.1893,28.666 C26.2189,30.404 23.2203,30.327 21.3409,28.448 L21.3409,28.448 L21.3406,28.447 L11.5436,18.643 C9.6622,16.761 9.5898,13.763 11.3258,11.795 L11.3258,11.795 L4.719,5.188 Z M32.3414,26.188 C31.8843,25.73 31.1408,25.731 30.6837,26.188 L30.6837,26.188 L29.855,27.016 L36.4854,33.646 L37.3143,32.818 C37.7712,32.361 37.7712,31.617 37.3142,31.16 L37.3142,31.16 L32.3414,26.188 Z M8.8328,2.687 C8.3744,2.229 7.6309,2.229 7.1739,2.686 L7.1739,2.686 L6.3494,3.503 L12.9754,10.129 L13.8043,9.3 C14.2624,8.842 14.2624,8.101 13.8043,7.643 L13.8043,7.643 L8.8328,2.687 Z" id="path-1"></path>
    </defs>
    <g id="Page-1" stroke="none" stroke-width="1" fill="none" fill-rule="evenodd">
        <g id="Sales--blue" transform="translate(-858.000000, -1986.000000)">
            <g id="Group-675" transform="translate(858.000000, 1986.000000)">
                <mask id="mask-2" fill="white">
                    <use xlink:href="#path-1"></use>
                </mask>
                <g id="Clip-674"></g>
                <polygon id="Fill-673" fill="#FFFFFF" mask="url(#mask-2)" points="-10 -10 50 -10 50 50 -10 50"></polygon>
            </g>
        </g>
    </g>
</svg>