<?xml version="1.0" encoding="UTF-8"?>
<svg width="40px" height="40px" viewBox="0 0 40 40" version="1.1" xmlns="http://www.w3.org/2000/svg" xmlns:xlink="http://www.w3.org/1999/xlink">
    <title>Group 669</title>
    <defs>
        <path d="M20,0 C31.053,0 40,8.945 40,20 C40,23.508 39.085,26.934 37.348,29.956 L39.925,37.958 C40.104,38.516 39.957,39.128 39.542,39.542 C39.132,39.953 38.522,40.106 37.958,39.925 L29.956,37.348 C26.934,39.085 23.508,40.0001516 20,40.0001516 C8.947,40.0001516 0,31.055 0,20 C0,8.947 8.945,0 20,0 Z M20,3.125 C10.695,3.125 3.125,10.695 3.125,20 C3.125,29.305 10.695,36.875 20,36.875 C23.169,36.875 26.257,35.991 28.932,34.318 C29.317,34.078 29.795,34.013 30.24,34.156 L36.016,36.016 L34.156,30.24 C34.015,29.801 34.074,29.323 34.319,28.932 C35.991,26.257 36.875,23.169 36.875,20 C36.875,10.695 29.305,3.125 20,3.125 Z M20,18.047 C21.079,18.047 21.953,18.921 21.953,20 C21.953,21.078 21.079,21.953 20,21.953 C18.921,21.953 18.047,21.078 18.047,20 C18.047,18.921 18.921,18.047 20,18.047 Z M12.188,18.047 C13.266,18.047 14.141,18.921 14.141,20 C14.141,21.078 13.266,21.953 12.188,21.953 C11.109,21.953 10.234,21.078 10.234,20 C10.234,18.921 11.109,18.047 12.188,18.047 Z M27.812,18.047 C28.891,18.047 29.766,18.921 29.766,20 C29.766,21.078 28.891,21.953 27.812,21.953 C26.734,21.953 25.859,21.078 25.859,20 C25.859,18.921 26.734,18.047 27.812,18.047 Z" id="path-1"></path>
    </defs>
    <g id="Page-1" stroke="none" stroke-width="1" fill="none" fill-rule="evenodd">
        <g id="Sales--blue" transform="translate(-1344.000000, -1984.000000)">
            <g id="Group-669" transform="translate(1344.000000, 1984.000000)">
                <mask id="mask-2" fill="white">
                    <use xlink:href="#path-1"></use>
                </mask>
                <g id="Clip-668"></g>
                <polygon id="Fill-667" fill="#565AFF" mask="url(#mask-2)" points="-10 50 50 50 50 -10 -10 -10"></polygon>
            </g>
        </g>
    </g>
</svg>