<?xml version="1.0" encoding="UTF-8"?>
<svg width="25px" height="24px" viewBox="0 0 25 24" version="1.1" xmlns="http://www.w3.org/2000/svg" xmlns:xlink="http://www.w3.org/1999/xlink">
    <title>video-marketing</title>
    <g id="Page-1" stroke="none" stroke-width="1" fill="none" fill-rule="evenodd">
        <g id="Sales--Console-Gray" transform="translate(-35.000000, -650.000000)" fill="#B1B2D7" fill-rule="nonzero">
            <g id="video-marketing" transform="translate(35.500000, 650.000000)">
                <path d="M11.5149536,5.21722411 C10.9423828,4.88488772 10.2581177,4.88378906 9.68444822,5.21411133 C9.10913086,5.54553225 8.765625,6.14044191 8.765625,6.80529788 L8.765625,11.4759521 C8.765625,12.1409912 9.10913086,12.7357177 9.68463136,13.0671387 C9.97045898,13.2317505 10.2837525,13.3141479 10.597229,13.3141479 C10.9125366,13.3141479 11.2278443,13.2308349 11.5149536,13.0640259 L15.5394287,10.7288818 C16.1116333,10.3969116 16.453125,9.80310056 16.453125,9.140625 C16.453125,8.47814944 16.1116333,7.88433839 15.5394287,7.55236819 L11.5149536,5.21722411 Z M10.640625,11.4036255 L10.640625,6.8776245 L14.5405884,9.140625 L10.640625,11.4036255 Z M22.125,9.796875 L22.125,3.75 C22.125,2.7161865 21.2838135,1.875 20.25,1.875 L3.75,1.875 C2.7161865,1.875 1.875,2.7161865 1.875,3.75 L1.875,14.53125 C1.875,15.5650635 2.7161865,16.40625 3.75,16.40625 L20.25,16.40625 C21.2838135,16.40625 22.125,15.5650635 22.125,14.53125 C22.125,14.0134277 22.5446777,13.59375 23.0625,13.59375 C23.5803223,13.59375 24,14.0134277 24,14.53125 C24,16.59906 22.31781,18.28125 20.25,18.28125 L3.75,18.28125 C1.68218995,18.28125 0,16.59906 0,14.53125 L0,3.75 C0,1.68218995 1.68218995,0 3.75,0 L20.25,0 C22.31781,0 24,1.68218995 24,3.75 L24,9.796875 C24,10.3146973 23.5803223,10.734375 23.0625,10.734375 C22.5446777,10.734375 22.125,10.3146973 22.125,9.796875 Z M24,22.078125 C24,22.5959473 23.5803223,23.015625 23.0625,23.015625 L11.015625,23.015625 C10.4978027,23.015625 10.078125,22.5959473 10.078125,22.078125 C10.078125,21.5603027 10.4978027,21.140625 11.015625,21.140625 L23.0625,21.140625 C23.5803223,21.140625 24,21.5603027 24,22.078125 Z M8.203125,22.125 C8.203125,23.1604614 7.36358644,24 6.328125,24 C5.61492919,24 4.99493409,23.6017456 4.67779542,23.015625 L0.9375,23.015625 C0.419677734,23.015625 0,22.5959473 0,22.078125 C0,21.5603027 0.419677734,21.140625 0.9375,21.140625 L4.73236083,21.140625 C5.06268309,20.6063232 5.65374755,20.25 6.328125,20.25 C7.36358644,20.25 8.203125,21.0895386 8.203125,22.125 Z" id="Shape"></path>
            </g>
        </g>
    </g>
</svg>