<?xml version="1.0" encoding="UTF-8"?>
<svg width="21px" height="20px" viewBox="0 0 21 20" version="1.1" xmlns="http://www.w3.org/2000/svg" xmlns:xlink="http://www.w3.org/1999/xlink">
    <title>Shape</title>
    <g id="Page-1" stroke="none" stroke-width="1" fill="none" fill-rule="evenodd">
        <g id="Sales--Console-Gray" transform="translate(-37.000000, -326.000000)" fill="#B1B2D7" fill-rule="nonzero">
            <g id="Customer" transform="translate(17.500000, 306.000000)">
                <path d="M37.0710938,32.9289062 C35.9819141,31.8397656 34.6855078,31.0334766 33.2710547,30.5453906 C34.7859766,29.5019922 35.78125,27.7557812 35.78125,25.78125 C35.78125,22.5934766 33.1877734,20 30,20 C26.8122266,20 24.21875,22.5934766 24.21875,25.78125 C24.21875,27.7557812 25.2140234,29.5019922 26.7289844,30.5453906 C25.3145313,31.0334766 24.018125,31.8397656 22.9289453,32.9289062 C21.0401953,34.8176953 20,37.3289063 20,40 L21.5625,40 C21.5625,35.3475391 25.3475391,31.5625 30,31.5625 C34.6524609,31.5625 38.4375,35.3475391 38.4375,40 L40,40 C40,37.3289063 38.9598047,34.8176953 37.0710938,32.9289062 Z M30,30 C27.6737891,30 25.78125,28.1075 25.78125,25.78125 C25.78125,23.455 27.6737891,21.5625 30,21.5625 C32.3262109,21.5625 34.21875,23.455 34.21875,25.78125 C34.21875,28.1075 32.3262109,30 30,30 Z" id="Shape" transform="translate(30.000000, 30.000000) scale(-1, 1) translate(-30.000000, -30.000000) "></path>
            </g>
        </g>
    </g>
</svg>