<?xml version="1.0" encoding="UTF-8"?>
<svg width="23px" height="20px" viewBox="0 0 23 20" version="1.1" xmlns="http://www.w3.org/2000/svg" xmlns:xlink="http://www.w3.org/1999/xlink">
    <title>Combined Shape</title>
    <g id="Page-1" stroke="none" stroke-width="1" fill="none" fill-rule="evenodd">
        <g id="Sales--Console-Gray" transform="translate(-36.000000, -537.000000)" fill="#B1B2D7" fill-rule="nonzero">
            <g id="District-Team" transform="translate(17.500000, 517.000000)">
                <path d="M19.8343887,20 C20.2952514,20 20.6687774,20.3730543 20.6687774,20.8333351 L20.6687774,20.8333351 L20.6687774,38.3333298 L40.1656113,38.3333298 C40.626474,38.3333298 41,38.7063841 41,39.1666649 C41,39.6269457 40.626474,40 40.1656113,40 L40.1656113,40 L19.8343887,40 C19.373526,40 19,39.6269457 19,39.1666649 L19,39.1666649 L19,20.8333351 C19,20.3730543 19.373526,20 19.8343887,20 Z M40.2631539,23 C40.6701404,23 41,23.3298471 41,23.7368181 L41,23.7368181 L41,29.2629159 C41,29.6698869 40.6701784,30 40.2631919,30 C39.8562054,30 39.5263458,29.6698869 39.5263458,29.2631819 L39.5263458,29.2631819 L39.526,25.769 L34.0000805,31.5852653 C33.7079287,31.8921945 33.2517196,31.9175109 32.9328395,31.6608385 L32.8495035,31.5838452 L31.063352,29.6967161 L24.3903243,36.7478443 C24.2315357,36.9159481 24.0227293,37 23.8145109,37 C23.6059984,37 23.397486,36.9159481 23.2386554,36.7478443 C22.9204482,36.411903 22.9204482,35.8668083 23.2386554,35.530867 L23.2386554,35.530867 L30.4874965,27.8709173 C30.8057037,27.5346653 31.3209583,27.534976 31.6391655,27.8709173 L31.6391655,27.8709173 L33.4264089,29.7595109 L38.448,24.473 L34.7368461,24.4736362 C34.3637752,24.4736362 34.0555122,24.196473 34.0067258,23.8368079 L34,23.7368181 C34,23.3298471 34.3298596,23 34.7368461,23 L34.7368461,23 Z" id="Combined-Shape"></path>
            </g>
        </g>
    </g>
</svg>