<?xml version="1.0" encoding="UTF-8"?>
<svg width="26px" height="31px" viewBox="0 0 26 31" version="1.1" xmlns="http://www.w3.org/2000/svg" xmlns:xlink="http://www.w3.org/1999/xlink">
    <title>Group</title>
    <defs>
        <path d="M9.9,0 L9.9,3.6 L11.7,3.6 L11.7,0 L21.6,0 C23.5852,0 25.2,1.615 25.2,3.6 L25.2,3.6 L25.2,27.12 C25.2,29.105 23.5852,30.72 21.6,30.72 L21.6,30.72 L3.6,30.72 C1.6148,30.72 0,29.105 0,27.12 L0,27.12 L0,7.2 C0,5.526 1.1491,4.114 2.7,3.714 L2.7,3.714 L2.7,0 L9.9,0 Z M21.6,1.8 L13.5,1.8 L13.5,5.4 L3.6,5.4 C2.6074,5.4 1.8,6.207 1.8,7.2 L1.8,7.2 L1.8,27.12 C1.8,28.113 2.6074,28.92 3.6,28.92 L3.6,28.92 L21.6,28.92 C22.5926,28.92 23.4,28.113 23.4,27.12 L23.4,27.12 L23.4,3.6 C23.4,2.607 22.5926,1.8 21.6,1.8 L21.6,1.8 Z M8.1,1.8 L4.5,1.8 L4.5,3.6 L8.1,3.6 L8.1,1.8 Z" id="path-1"></path>
        <path d="M6.6,0.6 L6.6,6 L0.3,6 L0.3,0.6 L6.6,0.6 Z M4.8,2.4 L2.1,2.4 L2.1,4.2 L4.8,4.2 L4.8,2.4 Z" id="path-3"></path>
        <path d="M18.6,0.8 L18.6,16.22 L0.6,16.22 L0.6,0.8 L18.6,0.8 Z M16.8,12.62 L2.4,12.62 L2.4,14.42 L16.8,14.42 L16.8,12.62 Z M16.8,2.6 L2.4,2.6 L2.4,10.82 L16.8,10.82 L16.8,2.6 Z" id="path-5"></path>
    </defs>
    <g id="Page-1" stroke="none" stroke-width="1" fill="none" fill-rule="evenodd">
        <g id="Sales--blue" transform="translate(-860.000000, -1082.000000)">
            <g id="Group" transform="translate(860.000000, 1082.000000)">
                <g id="Group-345">
                    <mask id="mask-2" fill="white">
                        <use xlink:href="#path-1"></use>
                    </mask>
                    <g id="Clip-344"></g>
                    <polygon id="Fill-343" fill="#000000" mask="url(#mask-2)" points="-10 -10 35.2 -10 35.2 40.72 -10 40.72"></polygon>
                </g>
                <g id="Group-348" transform="translate(15.000000, 3.000000)">
                    <mask id="mask-4" fill="white">
                        <use xlink:href="#path-3"></use>
                    </mask>
                    <g id="Clip-347"></g>
                    <polygon id="Fill-346" fill="#000000" mask="url(#mask-4)" points="-9.7 -9.4 16.6 -9.4 16.6 16 -9.7 16"></polygon>
                </g>
                <g id="Group-351" transform="translate(3.000000, 10.000000)">
                    <mask id="mask-6" fill="white">
                        <use xlink:href="#path-5"></use>
                    </mask>
                    <g id="Clip-350"></g>
                    <polygon id="Fill-349" fill="#000000" mask="url(#mask-6)" points="-9.4 -9.2 28.6 -9.2 28.6 26.22 -9.4 26.22"></polygon>
                </g>
            </g>
        </g>
    </g>
</svg>