<?xml version="1.0" encoding="UTF-8"?>
<svg width="17px" height="18px" viewBox="0 0 17 18" version="1.1" xmlns="http://www.w3.org/2000/svg" xmlns:xlink="http://www.w3.org/1999/xlink">
    <title>Shape</title>
    <g id="Page-1" stroke="none" stroke-width="1" fill="none" fill-rule="evenodd">
        <g id="Coaching-blue" transform="translate(-39.000000, -779.000000)" fill="#B1B2D7" fill-rule="nonzero">
            <g id="Logout" transform="translate(28.500000, 779.000000)">
                <path d="M19.0019008,0 C18.4285478,0 17.833022,0.650299509 17.8464376,1.200036 L17.8464376,8.40025201 C17.837352,9.03424303 18.3592565,9.60028801 19.0019008,9.60028801 C19.6445452,9.60028801 20.1664497,9.03424303 20.1573641,8.40025201 L20.1573641,1.200036 C20.1751485,0.473894217 19.5752539,0 19.0019008,0 Z M14.9349134,3.00009 C14.828871,3.0232435 14.7261637,3.06124264 14.6308441,3.11259338 C10.9826208,4.99844995 9.86498379,8.87024611 10.8299781,12.0754223 C11.7949723,15.2795184 14.8192454,18 18.9638314,18 C23.0495495,18 26.1121353,15.4211226 27.1362406,12.2626279 C28.1591297,9.10401312 27.0656966,5.27433823 23.3353746,3.14955449 C22.8075103,2.84522536 22.0473371,3.04167125 21.7384027,3.56200686 C21.4299549,4.08234247 21.6289378,4.83272498 22.1568021,5.13705411 C25.0646774,6.79286379 25.6627209,9.33045991 24.9313735,11.5872476 C24.2001477,13.8440353 22.0804199,15.7123714 18.9640746,15.7123714 C15.8310664,15.7123714 13.737002,13.732072 13.0347236,11.399682 C12.3322019,9.06741202 12.9775586,6.54193626 15.6950866,5.13705411 C16.1556907,4.88948668 16.3994327,4.30602918 16.2494657,3.81017431 C16.0996204,3.31419943 15.5717561,2.95778873 15.0490002,2.99954999 C15.0109307,2.99774993 14.9728612,2.99774993 14.9349134,2.99954999 L14.9349134,3.00009 Z" id="Shape"></path>
            </g>
        </g>
    </g>
</svg>