<?xml version="1.0" encoding="UTF-8"?>
<svg width="32px" height="32px" viewBox="0 0 32 32" version="1.1" xmlns="http://www.w3.org/2000/svg" xmlns:xlink="http://www.w3.org/1999/xlink">
    <title>Group 2</title>
    <defs>
        <path d="M4.963,0.814 L4.963,2.81 L6.96,2.81 L6.96,4.807 L3.965,4.807 C3.413,4.807 2.966,5.254 2.966,5.806 C2.966,6.357 3.413,6.804 3.965,6.804 C5.235,6.802 6.367,7.602 6.789,8.799 C7.337,10.356 6.52,12.062 4.963,12.611 L4.963,12.611 L4.963,14.791 L2.966,14.791 L2.966,12.794 L0.97,12.794 L0.97,10.798 L3.965,10.798 C4.516,10.798 4.963,10.351 4.963,9.799 C4.963,9.248 4.516,8.801 3.965,8.801 C2.695,8.803 1.562,8.003 1.141,6.805 C0.592,5.249 1.41,3.542 2.966,2.994 L2.966,2.994 L2.966,0.814 L4.963,0.814 Z" id="path-1"></path>
        <path d="M10.965,0.037 L16.823,8.823 L13.96,8.823 L13.96,12.279 C17.072,13.257 19.51,15.695 20.489,18.808 C22.143,24.068 19.22,29.673 13.96,31.327 C8.7,32.981 3.095,30.058 1.441,24.798 C-0.214,19.538 2.71,13.933 7.97,12.279 L7.97,12.279 L7.97,8.823 L5.106,8.823 L10.965,0.037 Z M10.965,13.815 C6.554,13.815 2.978,17.391 2.978,21.802 C2.978,26.214 6.554,29.79 10.965,29.79 C15.374,29.785 18.947,26.211 18.952,21.802 C18.952,17.391 15.376,13.815 10.965,13.815 Z M10.965,3.631 L8.836,6.826 L9.966,6.826 L9.966,11.869 C10.63,11.801 11.299,11.801 11.963,11.869 L11.963,11.869 L11.963,6.826 L13.093,6.826 L10.965,3.631 Z" id="path-3"></path>
        <path d="M5.99,0.818 L5.99,20.786 L0,20.786 L0,0.818 L5.99,0.818 Z M3.994,2.815 L1.997,2.815 L1.997,18.79 L3.994,18.79 L3.994,2.815 Z" id="path-5"></path>
        <polygon id="path-7" points="6.978 0.828 6.978 7.817 4.981 7.817 4.981 2.825 2.984 2.825 2.984 24.79 5.979 24.79 5.979 26.786 0.987 26.786 0.987 0.828"></polygon>
    </defs>
    <g id="Page-1" stroke="none" stroke-width="1" fill="none" fill-rule="evenodd">
        <g id="Sales--blue" transform="translate(-1188.000000, -1082.000000)">
            <g id="Group-2" transform="translate(1188.000000, 1082.000000)">
                <g id="Group-326" transform="translate(18.000000, 14.000000)">
                    <mask id="mask-2" fill="white">
                        <use xlink:href="#path-1"></use>
                    </mask>
                    <g id="Clip-325"></g>
                    <polygon id="Fill-324" fill="#000000" mask="url(#mask-2)" points="-9.03 -9.186 16.96 -9.186 16.96 24.791 -9.03 24.791"></polygon>
                </g>
                <g id="Group-329" transform="translate(11.000000, 0.000000)">
                    <mask id="mask-4" fill="white">
                        <use xlink:href="#path-3"></use>
                    </mask>
                    <g id="Clip-328"></g>
                    <polygon id="Fill-327" fill="#000000" mask="url(#mask-4)" points="-9.022 -9.963 30.951 -9.963 30.951 41.789 -9.022 41.789"></polygon>
                </g>
                <g id="Group-332" transform="translate(0.000000, 11.000000)">
                    <mask id="mask-6" fill="white">
                        <use xlink:href="#path-5"></use>
                    </mask>
                    <g id="Clip-331"></g>
                    <polygon id="Fill-330" fill="#000000" mask="url(#mask-6)" points="-10 -9.182 15.99 -9.182 15.99 30.786 -10 30.786"></polygon>
                </g>
                <g id="Group-335" transform="translate(7.000000, 5.000000)">
                    <mask id="mask-8" fill="white">
                        <use xlink:href="#path-7"></use>
                    </mask>
                    <g id="Clip-334"></g>
                    <polygon id="Fill-333" fill="#000000" mask="url(#mask-8)" points="-9.013 -9.172 16.978 -9.172 16.978 36.786 -9.013 36.786"></polygon>
                </g>
            </g>
        </g>
    </g>
</svg>