<?xml version="1.0" encoding="UTF-8"?>
<svg width="25px" height="21px" viewBox="0 0 25 21" version="1.1" xmlns="http://www.w3.org/2000/svg" xmlns:xlink="http://www.w3.org/1999/xlink">
    <title>Combined Shape</title>
    <g id="Page-1" stroke="none" stroke-width="1" fill="none" fill-rule="evenodd">
        <g id="Sales--Console-Gray" transform="translate(-34.000000, -423.000000)" fill="#B1B2D7" fill-rule="nonzero">
            <g id="My-Dev" transform="translate(17.500000, 403.000000)">
                <path d="M38.7906494,20 C39.9852295,20 41,20.9639853 41,22.2104611 L41,22.2104611 L41,30.4990492 C41,31.7453419 39.9852295,32.7095104 38.7906494,32.7095104 L38.7906494,32.7095104 L35.2490234,32.7095104 L37.9443359,40.0520665 C38.0783691,40.4168127 37.8912354,40.8209464 37.5268555,40.9548638 C37.1016846,41.1111313 36.7334595,40.8341366 36.6243286,40.5371735 L36.6243286,40.5371735 L33.7510376,32.7095104 L33.2581177,32.7095104 L30.4139404,40.5349751 C30.3009643,40.8456781 29.9299927,41.1074673 29.5128784,40.9555966 C29.1479492,40.8229616 28.9595337,40.4191943 29.0922852,40.0540817 L29.0922852,40.0540817 L31.7617798,32.7095104 L29.2407837,32.7095104 C28.7123413,33.690533 27.5437622,33.9473759 26.682251,33.5164954 L26.682251,33.5164954 L24.4311523,32.3905635 L24.4311523,40.29462 C24.4311523,40.6829987 24.116394,40.9980984 23.7280273,40.9980984 L23.7280273,40.9980984 L19.2093506,40.9980984 C18.8209839,40.9980984 18.5062256,40.6829987 18.5062256,40.29462 L18.5062256,40.29462 L18.5062256,36.3622855 C17.6315307,36.0678871 17,35.2396512 17,34.266506 L17,34.266506 L17,32.0060319 C17,30.2537478 17.9840088,28.8392798 19.2721557,28.114184 C18.5726929,27.5013884 18.1297607,26.602255 18.1297607,25.6012638 C18.1297607,23.7592129 19.6275635,22.2604741 21.4688721,22.2604741 C23.3099975,22.2604741 24.8078003,23.7592129 24.8078003,25.6012638 C24.8078003,26.4961837 24.4534912,27.3095806 23.8787232,27.9099188 C23.9464722,27.9394136 24.0136719,27.9705572 24.0797729,28.0035328 L24.0797729,28.0035328 L26.0375366,28.9775939 L26.0375366,22.2104611 C26.0375366,20.9916481 27.0286865,20 28.2468872,20 L28.2468872,20 Z M22.0899658,28.9420536 L21.468689,28.9420536 C19.8051758,28.9420536 18.40625,30.2870897 18.40625,32.0060319 L18.40625,32.0060319 L18.40625,34.266506 C18.40625,34.7096608 18.7664185,35.0700102 19.2093506,35.0700102 C19.5975342,35.0700102 19.9124756,35.38511 19.9124756,35.7734887 L19.9124756,35.7734887 L19.9124756,39.5911416 L23.0249023,39.5911416 L23.0249023,31.2525406 C23.0249023,30.729878 23.5756836,30.3898635 24.0422363,30.6232571 C24.0422363,30.6232571 24.6023863,30.9032339 25.3281885,31.266154 L25.6482385,31.4261949 C25.7028871,31.4535232 25.7580933,31.4811312 25.8137134,31.5089469 L26.3215869,31.7629591 C26.6624431,31.9334554 27.0026715,32.1036762 27.3112182,32.2581117 C27.446167,32.3255284 27.604187,32.3315739 27.7446289,32.2744163 C27.8773804,32.2198234 27.9857788,32.1069738 28.0337525,31.9730564 L28.0337525,31.9730564 L28.0390625,31.9573014 C28.1091919,31.7572497 28.0187378,31.5352143 27.8284912,31.4406844 C27.5620178,31.3079028 27.0616016,31.0587835 26.4915908,30.7750795 L26.1030768,30.5817169 C25.5102511,30.286679 24.8843526,29.9752237 24.3897298,29.729104 L24.0812331,29.5756006 C23.7006445,29.3862277 23.4526367,29.2628324 23.4526367,29.2628324 C23.0320435,29.0527049 22.5612793,28.9420536 22.0899658,28.9420536 L22.0899658,28.9420536 Z M38.7906494,21.4069569 L28.2468872,21.4069569 C27.8039551,21.4069569 27.4437866,21.7674896 27.4437866,22.2104611 L27.4437866,22.2104611 L27.4437866,29.6774084 C27.7893066,29.8492477 28.1117554,30.0099119 28.3891602,30.148226 L28.3891602,30.148226 L29.8774414,27.1703505 C30.0512085,26.8228248 30.4736328,26.6821291 30.8208008,26.8558004 C31.1681518,27.0296548 31.3087768,27.4521083 31.1351929,27.7996339 L31.1351929,27.7996339 L29.3901978,31.2911952 C29.3914795,31.2948592 29.392395,31.2987063 29.3936768,31.3025535 L29.3936768,31.3025535 L38.7906494,31.3025535 C39.0025025,31.3025535 39.2095948,31.2168171 39.3588257,31.0673279 C39.510437,30.9156403 39.59375,30.7139399 39.59375,30.4990492 L39.59375,30.4990492 L39.59375,22.2104611 C39.59375,21.9955704 39.510437,21.79387 39.3590088,21.6425489 C39.2095948,21.4926933 39.0025025,21.4069569 38.7906494,21.4069569 L38.7906494,21.4069569 Z M37.2844238,28.2885881 C37.6727905,28.2885881 37.9875488,28.6035046 37.9875488,28.9920665 C37.9875488,29.3804452 37.6726074,29.6955449 37.2844238,29.6955449 L37.2844238,29.6955449 L33.5186768,29.6955449 C33.1304932,29.6955449 32.8155518,29.3804452 32.8155518,28.9920665 C32.8155518,28.6035046 33.1304932,28.2885881 33.5186768,28.2885881 L33.5186768,28.2885881 Z M21.468689,23.6674309 C20.4030151,23.6674309 19.5360107,24.5348711 19.5360107,25.6012638 C19.5360107,26.6674733 20.4030151,27.5349135 21.468689,27.5349135 C22.5345459,27.5349135 23.4015503,26.6674733 23.4015503,25.6012638 C23.4015503,24.5348711 22.5345459,23.6674309 21.468689,23.6674309 Z M37.2844238,25.6512767 C37.6727905,25.6512767 37.9875488,25.9661933 37.9875488,26.3547552 C37.9875488,26.7433171 37.6726074,27.0582336 37.2844238,27.0582336 L37.2844238,27.0582336 L33.5186768,27.0582336 C33.1304932,27.0582336 32.8155518,26.7433171 32.8155518,26.3547552 C32.8155518,25.9661933 33.1304932,25.6512767 33.5186768,25.6512767 L33.5186768,25.6512767 Z M37.2844238,23.0139654 C37.6727905,23.0139654 37.9875488,23.3288819 37.9875488,23.7174438 C37.9875488,24.1060057 37.6726074,24.4209223 37.2844238,24.4209223 L37.2844238,24.4209223 L29.7531128,24.4209223 C29.3647461,24.4209223 29.0499878,24.1060057 29.0499878,23.7174438 C29.0499878,23.3288819 29.3647461,23.0139654 29.7531128,23.0139654 L29.7531128,23.0139654 Z" id="Combined-Shape"></path>
            </g>
        </g>
    </g>
</svg>