<svg width="20" height="15" viewBox="0 0 20 15" fill="none" xmlns="http://www.w3.org/2000/svg">
<path fill-rule="evenodd" clip-rule="evenodd" d="M18.2422 0H1.75781C0.789766 0 0 0.776769 0 1.73077V13.2692C0 14.22 0.78625 15 1.75781 15H18.2422C19.2078 15 20 14.2258 20 13.2692V1.73077C20 0.78 19.2138 0 18.2422 0ZM18 1L10.0344 9L2 1H18ZM1 2V13L7 7.47632L1 2ZM2 14L7.64762 8L9.62654 10.0843C9.85562 10.3256 10.2253 10.3248 10.4534 10.0824L12.383 8.0325L18 14H2ZM13 7.50002L19 13V2L13 7.50002Z" fill="white"/>
</svg>
