<svg width="10" height="10" viewBox="0 0 10 10" fill="none" xmlns="http://www.w3.org/2000/svg">
<path d="M8.77678 0.562734L2.64287 0.557488C2.46777 0.557341 2.30309 0.625831 2.17878 0.750143C2.05433 0.874593 1.98598 1.03927 1.98606 1.2143L1.9866 1.77127C1.98668 1.94616 2.05538 2.11117 2.17997 2.23576C2.30449 2.36028 2.47343 2.43292 2.64832 2.433L6.23065 2.43995L0.551083 8.11953C0.295009 8.3756 0.293485 8.77874 0.55006 9.03532L0.944149 9.42941C1.20072 9.68598 1.62412 9.70471 1.88019 9.44863L7.58004 3.74878L7.57681 7.36135C7.57703 7.53637 7.64255 7.6982 7.76714 7.82279C7.89159 7.94724 8.05507 8.01442 8.23003 8.01457L8.78611 8.01421C8.9612 8.01436 9.12547 7.94559 9.24992 7.82114C9.37423 7.69683 9.44244 7.53187 9.4423 7.35678L9.43712 1.22293C9.4369 1.04736 9.36779 0.8818 9.24271 0.757416C9.11785 0.631996 8.95229 0.562743 8.77678 0.562734Z" fill="#111538"/>
</svg>
