<?xml version="1.0" encoding="UTF-8"?>
<svg width="31px" height="19px" viewBox="0 0 31 19" version="1.1" xmlns="http://www.w3.org/2000/svg" xmlns:xlink="http://www.w3.org/1999/xlink">
    <title>Group 322</title>
    <defs>
        <path d="M29.1227,0 C29.161,0 29.193,0.018 29.2313,0.02 C29.359,0.032 29.4867,0.047 29.6081,0.096 C29.7562,0.157 29.8878,0.247 30.0027,0.355 C30.0091,0.361 30.0168,0.363 30.0245,0.37 C30.142,0.487 30.2365,0.626 30.3016,0.782 C30.3654,0.937 30.3987,1.1 30.4,1.266 L30.4,1.266 L30.4,11.408 C30.4,12.109 29.829,12.675 29.1227,12.675 C28.4163,12.675 27.8454,12.109 27.8454,11.408 L27.8454,11.408 L27.8454,4.34 L16.7317,15.432 C16.4724,15.689 16.1161,15.824 15.7495,15.803 C15.3829,15.782 15.0444,15.606 14.8183,15.318 L14.8183,15.318 L10.9443,10.396 L2.1553,18.654 C1.9088,18.885 1.5933,19 1.2778,19 C0.9393,19 0.6021,18.868 0.3492,18.606 C-0.1349,18.098 -0.1132,17.295 0.399,16.814 L0.399,16.814 L10.2086,7.597 C10.4691,7.353 10.8115,7.227 11.1831,7.254 C11.5408,7.281 11.8716,7.456 12.0938,7.738 L12.0938,7.738 L15.941,12.626 L26.0521,2.535 L18.9044,2.535 C18.198,2.535 17.6271,1.968 17.6271,1.268 C17.6271,0.567 18.1981,0 18.9044,0 L18.9044,0 L29.1227,0 Z" id="path-1"></path>
    </defs>
    <g id="Page-1" stroke="none" stroke-width="1" fill="none" fill-rule="evenodd">
        <g id="Sales--blue" transform="translate(-534.000000, -1088.000000)">
            <g id="Group-322" transform="translate(534.000000, 1088.000000)">
                <mask id="mask-2" fill="white">
                    <use xlink:href="#path-1"></use>
                </mask>
                <g id="Clip-321"></g>
                <polygon id="Fill-320" fill="#000000" mask="url(#mask-2)" points="-10 -10 40.4 -10 40.4 29 -10 29"></polygon>
            </g>
        </g>
    </g>
</svg>