<?xml version="1.0" encoding="UTF-8"?>
<svg width="20px" height="20px" viewBox="0 0 20 20" version="1.1" xmlns="http://www.w3.org/2000/svg" xmlns:xlink="http://www.w3.org/1999/xlink">
    <title>Iconly/Light-outline/Search</title>
    <g id="Page-1" stroke="none" stroke-width="1" fill="none" fill-rule="evenodd">
        <g id="Coaching-blue" transform="translate(-930.000000, -30.000000)" fill="#FFFFFF" fill-rule="nonzero">
            <g id="Iconly/Light-outline/Search" transform="translate(930.000000, 30.000000)">
                <g id="Search" transform="translate(0.625387, 0.625387)">
                    <path d="M9.016399,2.3513355e-13 C13.9960187,2.3513355e-13 18.032798,3.94762292 18.032798,8.81726259 C18.032798,11.1152948 17.1338107,13.2079946 15.6609903,14.7773891 L18.5575906,17.6017788 C18.8291169,17.8666184 18.8296886,18.2965673 18.5588676,18.5620966 C18.3126667,18.8034869 17.9269301,18.8258935 17.6548292,18.6289946 L17.5768612,18.5633454 L14.646783,15.7044584 C13.1039269,16.9122376 11.1464176,17.6345252 9.016399,17.6345252 C4.03677933,17.6345252 0,13.6869022 0,8.81726259 C0,3.94762292 4.03677933,2.3513355e-13 9.016399,2.3513355e-13 Z M9.016399,1.35809566 C4.80377473,1.35809566 1.38876802,4.69767845 1.38876802,8.81726259 C1.38876802,12.9368467 4.80377473,16.2764295 9.016399,16.2764295 C13.2290233,16.2764295 16.64403,12.9368467 16.64403,8.81726259 C16.64403,4.69767845 13.2290233,1.35809566 9.016399,1.35809566 Z"></path>
                </g>
            </g>
        </g>
    </g>
</svg>