<svg width="20" height="20" viewBox="0 0 20 20" fill="none" xmlns="http://www.w3.org/2000/svg">
<path fill-rule="evenodd" clip-rule="evenodd" d="M18.8281 12.3828C18.8281 13.273 18.4285 14.0712 17.7999 14.6089C19.1066 15.2955 20 16.6664 20 18.2422V19.4141C20 19.7377 19.7377 20 19.4141 20H12.3828C12.0592 20 11.7969 19.7377 11.7969 19.4141V18.2422C11.7969 17.9581 11.8259 17.6807 11.8812 17.4128C11.2896 17.5473 10.6552 17.6172 10 17.6172C5.97422 17.6172 2.6652 14.4732 2.36617 10.5469H0.585938C0.262344 10.5469 0 10.2845 0 9.96094V8.78906C0 7.21328 0.893398 5.84242 2.20012 5.15578C1.57148 4.61805 1.17188 3.81988 1.17188 2.92969C1.17188 1.31426 2.48613 0 4.10156 0C5.71699 0 7.03125 1.31426 7.03125 2.92969L7.03102 2.93937C7.94289 2.57305 8.94934 2.38281 10 2.38281C14.2104 2.38281 17.6562 5.82781 17.6562 10.0391V10.0407C18.3673 10.5757 18.8281 11.4264 18.8281 12.3828ZM15.8984 14.1406C16.8677 14.1406 17.6562 13.3521 17.6562 12.3828C17.6562 11.4136 16.8677 10.625 15.8984 10.625C14.9292 10.625 14.1406 11.4136 14.1406 12.3828C14.1406 13.3521 14.9292 14.1406 15.8984 14.1406ZM4.10156 1.17188C5.07082 1.17188 5.85938 1.96043 5.85938 2.92969C5.85938 3.89895 5.07082 4.6875 4.10156 4.6875C3.1323 4.6875 2.34375 3.89895 2.34375 2.92969C2.34375 1.96043 3.1323 1.17188 4.10156 1.17188ZM1.17188 8.78906V9.375H7.03125V8.78906C7.03125 7.17363 5.71699 5.85938 4.10156 5.85938C2.48613 5.85938 1.17188 7.17363 1.17188 8.78906ZM10 16.4453C6.62199 16.4453 3.83957 13.8488 3.54238 10.5469H7.61719C7.94078 10.5469 8.20312 10.2845 8.20312 9.96094V8.78906C8.20312 7.21328 7.30973 5.84242 6.00301 5.15578C6.23461 4.95766 6.43527 4.72445 6.59609 4.46395C7.57156 3.86922 8.74488 3.55469 10 3.55469C13.3967 3.55469 16.1915 6.18008 16.4625 9.50816C16.2799 9.47238 16.0914 9.45312 15.8984 9.45312C14.283 9.45312 12.9688 10.7674 12.9688 12.3828C12.9688 13.273 13.3684 14.0712 13.997 14.6089C13.3707 14.938 12.8393 15.4243 12.4558 16.015C11.7437 16.2968 10.8991 16.4453 10 16.4453ZM12.9688 18.2422V18.8281H18.8281V18.2422C18.8281 16.6268 17.5139 15.3125 15.8984 15.3125C14.283 15.3125 12.9688 16.6268 12.9688 18.2422Z" fill="white"/>
</svg>
