<?xml version="1.0" encoding="UTF-8"?>
<svg width="20px" height="20px" viewBox="0 0 20 20" version="1.1" xmlns="http://www.w3.org/2000/svg" xmlns:xlink="http://www.w3.org/1999/xlink">
    <title>Combined Shape</title>
    <g id="Page-1" stroke="none" stroke-width="1" fill="none" fill-rule="evenodd">
        <g id="Blue-Copy-2" transform="translate(-496.000000, -630.000000)" fill="#FFFFFF" fill-rule="nonzero">
            <g id="Coach-Performance" transform="translate(117.000000, 552.000000)">
                <g id="ribbon" transform="translate(379.000000, 78.000000)">
                    <path d="M2.87036434,11 C4.12506002,13.222406 6.3781937,14.7763539 9,15.0045473 L9,15.0045473 L6.36127102,19.6899545 C6.25248238,19.8834229 6.05182777,20 5.83787677,20 C5.81249276,20 5.78469121,19.9987598 5.75809843,19.9962795 C5.51634589,19.9627945 5.31690005,19.7829682 5.25404439,19.5411327 L5.25404439,19.5411327 L4.31000072,15.8999587 L0.761073426,16.8784622 C0.524155936,16.945432 0.273942057,16.8561389 0.125264245,16.6577098 C-0.0234135673,16.4592807 -0.0415450079,16.1876809 0.080540025,15.9694088 L0.080540025,15.9694088 Z M17.1292234,11 L19.9200688,15.9694088 C20.0409369,16.1876809 20.0240154,16.4592807 19.8741389,16.6564696 C19.7242624,16.8548987 19.475274,16.9441918 19.2383725,16.877222 L19.2383725,16.877222 L15.6896839,15.8987185 L14.7457037,19.5398925 C14.6816436,19.781728 14.4834198,19.9615544 14.2404749,19.9950393 C14.2150925,19.9987598 14.1872929,20 14.1619106,20 C13.947974,20 13.7473328,19.8834229 13.6385515,19.6899545 L13.6385515,19.6899545 L11,15.0045473 C13.62163,14.7763539 15.8758208,13.222406 17.1292234,11 L17.1292234,11 Z M10,0 C13.8589091,0 17,3.13981818 17,7 C17,10.8601818 13.8589091,14 10,14 C6.13981818,14 3,10.8601818 3,7 C3,3.13981818 6.13981818,0 10,0 Z M10.546,2.85727273 C10.3181818,2.47036364 9.68181818,2.47036364 9.45272727,2.85727273 L9.45272727,2.85727273 L8.46254545,4.52454545 L6.65781818,4.99672727 C6.44909091,5.05145455 6.28236364,5.20672727 6.21490909,5.41163636 C6.14745455,5.61654545 6.18690909,5.84181818 6.32181818,6.00981818 L6.32181818,6.00981818 L7.53090909,7.52436364 L7.39854545,9.50345455 C7.38454545,9.72363636 7.48509091,9.93618182 7.66581818,10.0647273 C7.84527273,10.1932727 8.07945455,10.2174545 8.28309091,10.1309091 L8.28309091,10.1309091 L10,9.40163636 L11.7181818,10.1309091 C11.7970909,10.1652727 11.8823636,10.1818182 11.9663636,10.1818182 C12.0961818,10.1818182 12.2247273,10.1423636 12.3354545,10.0647273 C12.5174545,9.93618182 12.618,9.72363636 12.6027273,9.50345455 L12.6027273,9.50345455 L12.4703636,7.52436364 L13.6794545,6.00981818 C13.8130909,5.84054545 13.8538182,5.61527273 13.7850909,5.41163636 C13.7163636,5.208 13.5496364,5.05145455 13.3421818,4.99672727 L13.3421818,4.99672727 L11.5361818,4.52454545 Z" id="Combined-Shape"></path>
                </g>
            </g>
        </g>
    </g>
</svg>